<svg viewBox="0 0 36 36" xmlns="http://www.w3.org/2000/svg">
    <g stroke-width=".18898">
        <path d="m14.818 7.2006a1.0375 1.0375 0 0 0-1.0248 0.87553l-1.7032 10.8-1.5649 9.9239-9.45e-4 0.0083 0.0019-0.0083 1.5649-9.9239c0.07956-0.50438 0.51383-0.87553 1.0243-0.87553h4.9897c5.0217 0 9.2838-3.6637 10.062-8.6283 0.05934-0.3772 0.09109-0.7508 0.09827-1.1195v-5.669e-4h-5.67e-4c-1.2762-0.66954-2.7747-1.0517-4.4168-1.0517z" fill="#001c64"/>
        <path d="m28.265 8.2524c-7e-3 0.36869-0.03912 0.74268-0.09827 1.1199-0.77839 4.9646-5.0406 8.6283-10.062 8.6283h-4.9897c-0.51042 0-0.94469 0.37115-1.0243 0.87553l-1.5649 9.9239-0.98211 6.2262a0.84283 0.84283 0 0 0 0.83244 0.97379h5.4161a1.0375 1.0375 0 0 0 1.0248-0.87553l1.4268-9.0484c0.07994-0.50438 0.51439-0.87609 1.0248-0.87609h3.1892c5.0217 0 9.2833-3.6635 10.062-8.6277 0.55257-3.5242-1.2208-6.7302-4.254-8.3199z" fill="#0070e0"/>
        <path d="m8.665-2.2807e-7a1.0375 1.0375 0 0 0-1.0248 0.87609l-4.2499 26.95a0.84283 0.84283 0 0 0 0.83244 0.97436h6.3025l1.5649-9.9239 1.7032-10.8a1.0375 1.0375 0 0 1 1.0248-0.87553h9.0297c1.6424 0 3.141 0.38268 4.4173 1.0513 0.086929-4.5197-3.6425-8.2518-8.7708-8.2518z" fill="#003087"/>
    </g>
</svg>
